<svg xmlns="http://www.w3.org/2000/svg" xmlns:xlink="http://www.w3.org/1999/xlink" width="128" height="42" viewBox="0 0 128 42"><defs><clipPath id="b"><rect width="128" height="42"/></clipPath></defs><g id="a" clip-path="url(#b)"><path d="M183.718,108.345a.189.189,0,0,1-.032-.153.225.225,0,0,1,.092-.14l.32-.225c.118-.082,2.926-2.037,4.886-2.019a1.807,1.807,0,0,1,1.683.888,1.888,1.888,0,0,1-.071,2.024,4.344,4.344,0,0,1-3.509,1.782,2.64,2.64,0,0,1-1.247-.294,5.326,5.326,0,0,1-1.9-1.584Zm-64.69,3.54c-3.967,11.106-9.534,16.981-16.1,16.992h-.094a7.906,7.906,0,0,1-6.075-2.837,7.049,7.049,0,0,1-1.561-5.6,5.216,5.216,0,0,1,5.025-4.625v0a4.094,4.094,0,0,1,4.086,4.635,5.261,5.261,0,0,1-3.874,4.509,2.087,2.087,0,0,0,1.277.438c1.274.011,2.822-1.032,4.357-2.939a38.535,38.535,0,0,0,5.539-10.846l.722-1.942c-1.644.017-1.919.119-2.427.767l-.7.9a.216.216,0,0,1-.171.084.2.2,0,0,1-.054-.01.176.176,0,0,1-.119-.189l.112-1.09a6.08,6.08,0,0,1,5.066-5l2.154-5.8A8.329,8.329,0,0,1,110,102.6a5.941,5.941,0,0,1-5.8-6.565c.262-2.467,2-4.7,4.894-6.279,3.47-1.9,8.463-2.867,14.835-2.878.139,0,.279,0,.419,0,6.3.055,10.711,1.619,12.752,4.517,1.387,1.971,1.655,4.5.791,7.507a14.021,14.021,0,0,1-8.161,8.987,20.43,20.43,0,0,1-7.254,1.757l-2.607.008Zm.12-20.5c-2.848.21-6.967,1.725-7.336,5.2a1.671,1.671,0,0,0,1.739,2.048,5.9,5.9,0,0,0,2.564-.723l.742-.364Zm7.524-.028-5.191,13.8,1.33,0c5-.007,6.991-4.515,7.616-6.45.851-2.645.877-4.583.081-5.764C129.84,91.948,128.584,91.431,126.672,91.357Zm96.055,33.328-.012.172a.237.237,0,0,1-.064.141l-.1.1c-.372.367-3.7,3.587-6.344,3.592h-.048a3.27,3.27,0,0,1-2.87-1.468,4.558,4.558,0,0,1-.659-2.4c-2.068,2.73-3.992,3.9-6.357,3.909h-.049a4.92,4.92,0,0,1-4.249-2.473,6.681,6.681,0,0,1-4.946,2.489,3.73,3.73,0,0,1-3.565-4.357,9.989,9.989,0,0,1,.475-2.055l2.308-6.393a10.048,10.048,0,0,1-1.429.641,33.9,33.9,0,0,1-4.4,8.321c-.768.945-3.108,3.822-6.709,3.829h0a3.639,3.639,0,0,1-3.539-3.178,11.191,11.191,0,0,1-7.5,3.215h-.121c-3.088-.027-5.252-1.251-5.985-3.371-2.487,2.312-3.548,2.993-5.457,3h-.108c-2.457-.022-3.938-1.022-4.52-3.053l-.35.276c-.155.129-3.9,3.185-6.143,3.188h-.054a3.3,3.3,0,0,1-3.419-2.841l-.031.029a9.5,9.5,0,0,1-6.476,2.829h-.047a3.333,3.333,0,0,1-3.443-2.992c-1.022,1.287-2.539,3-5.145,3.007l-.052,0a3.273,3.273,0,0,1-2.865-1.465,4.607,4.607,0,0,1-.663-2.4c-2.064,2.729-3.988,3.9-6.353,3.909h-.052A4.9,4.9,0,0,1,117,126.165c-1.093-2.186-.627-5.2,1.315-8.5,3-5.092,6.679-7.676,10.932-7.683a3.679,3.679,0,0,1,3.353,2.161l5.425-2.115a.167.167,0,0,1,.075-.016.176.176,0,0,1,.161.248l-.229.649s-3.079,8.76-4.1,11.655a1.9,1.9,0,0,0,0,1.261.238.238,0,0,0,.229.108c.306,0,1.072-.215,2.8-1.7.183-.508,3.528-9.735,3.528-9.735a.225.225,0,0,1,.135-.133l6.471-2.331a.214.214,0,0,1,.069-.013.174.174,0,0,1,.123.05.193.193,0,0,1,.041.2l-.207.618c-.029.087-2.961,8.834-4.113,11.689a1.479,1.479,0,0,0,.043,1.312.931.931,0,0,0,.823.441c.477.005,1.494-.248,3.014-1.972,1.8-5.015,3.5-9.651,3.52-9.7l.062-.171a.229.229,0,0,1,.133-.134l6.486-2.334a.168.168,0,0,1,.07-.013.172.172,0,0,1,.125.051.192.192,0,0,1,.036.2l-.285.8c-.943,2.655-3.225,9.089-4.037,11.478a1.466,1.466,0,0,0,.021,1.1.352.352,0,0,0,.328.15c.33,0,1.133-.2,2.827-1.569,0-.121.009-.245.017-.369.161-3.047,4.909-18.644,7.784-22.655,2.219-3.094,4.771-3.536,6.1-3.526a4.248,4.248,0,0,1,1.082.128l.047.016c1.677.723,3.157,1.884,1.364,7.366-3.152,9.657-8.242,16.1-10.29,17.8-.4,2.224-.116,3,.094,3.267a.514.514,0,0,0,.433.205,2.23,2.23,0,0,0,1.134-.452c1.26-.909,1.725-1.3,2.032-1.551.087-.074.167-.14.247-.2a14.62,14.62,0,0,1,2.092-6.572c3.1-4.948,6.546-5.609,8.866-5.677.082,0,.161,0,.24,0a4.182,4.182,0,0,1,4.446,3.917c.258,3.159-2.3,5.627-4.953,6.669a14.488,14.488,0,0,1-4.562,1.1,3.554,3.554,0,0,0,.534,2.563,2.028,2.028,0,0,0,1.613.639c2.05.019,4.829-1.564,6.187-2.717l3.516-9.737a.222.222,0,0,1,.13-.134l6.052-2.362a.19.19,0,0,1,.074-.015.177.177,0,0,1,.162.248l-.231.655c-.029.074-3.13,8.776-4.1,11.644a1.6,1.6,0,0,0-.08,1.2.233.233,0,0,0,.216.1c.33,0,1.137-.357,2.072-1.724a53.654,53.654,0,0,0,3.28-5.941,2.142,2.142,0,0,1-1.094-2.107,2.512,2.512,0,0,1,2.4-2.243h.05a2.108,2.108,0,0,1,2.395,2.174,3.754,3.754,0,0,0,1.991-1.433l.068-.111a.222.222,0,0,1,.108-.093l6.009-2.344a.238.238,0,0,1,.074-.014.178.178,0,0,1,.123.05.188.188,0,0,1,.04.2l-.231.652s-3.08,8.759-4.1,11.652a2.216,2.216,0,0,0-.019,1.342c.023.033.033.033.058.034.08,0,.537-.057,1.73-1.267a13.479,13.479,0,0,1,1.8-5.071c3.073-5.086,6.748-7.67,10.931-7.677h0A3.674,3.674,0,0,1,217.443,112l5.426-2.117a.18.18,0,0,1,.074-.014.169.169,0,0,1,.121.048.184.184,0,0,1,.041.2s-3.309,9.411-4.329,12.307a2.369,2.369,0,0,0-.008,1.518.254.254,0,0,0,.245.121c.332,0,1.168-.249,3.078-1.973l.666-.6a.231.231,0,0,1,.144-.056.2.2,0,0,1,.075.016.181.181,0,0,1,.1.192l-.125.863C222.852,123.18,222.761,124.256,222.727,124.685Zm-9.526-6.527c.906-2.024,1.2-3.385.87-4.046a.894.894,0,0,0-.746-.465,1.325,1.325,0,0,0-.135-.008c-1.409-.012-3.317,2.86-4.185,4.674-.62,1.28-1.433,3.611-.974,4.432a.6.6,0,0,0,.584.281C211.023,123.019,212.664,119.359,213.2,118.157Zm-36.132-3.775a.831.831,0,0,0-.919-.819l-.053,0c-1.757.038-2.941,3.433-3.408,5.626a8.381,8.381,0,0,0,2.177-.827A4.7,4.7,0,0,0,177.069,114.382ZM170,98.481c-1.016,2.227-5,11.147-6.7,17.625a47.65,47.65,0,0,0,4.094-7.853c.984-2.252,3.587-8.208,2.753-9.616A.4.4,0,0,0,170,98.481Zm-41.551,19.786c.9-2.023,1.2-3.383.869-4.044a.89.89,0,0,0-.747-.465,1.173,1.173,0,0,0-.132-.009c-1.415-.013-3.318,2.859-4.187,4.675-.62,1.279-1.431,3.609-.972,4.427a.6.6,0,0,0,.585.281C126.269,123.131,127.91,119.469,128.449,118.267Z" transform="translate(-95.118 -86.879)" fill="#000000"/></g></svg>
