<svg xmlns="http://www.w3.org/2000/svg" xmlns:xlink="http://www.w3.org/1999/xlink" width="24" height="24" viewBox="0 0 24 24">
  <defs>
    <clipPath id="clip-settings-blocks">
      <rect width="24" height="24"/>
    </clipPath>
  </defs>
  <g id="settings-blocks" clip-path="url(#clip-settings-blocks)">
    <path id="União_1" data-name="União 1" d="M-776.6-40a.7.7,0,0,1-.7-.7v-4.9a.7.7,0,0,1,.7-.7h4.9a.7.7,0,0,1,.7.7v4.9a.7.7,0,0,1-.7.7Zm-7.7,0a.7.7,0,0,1-.7-.7v-4.9a.7.7,0,0,1,.7-.7h4.9a.7.7,0,0,1,.7.7v4.9a.7.7,0,0,1-.7.7Zm7.7-7.7a.7.7,0,0,1-.7-.7v-4.9a.7.7,0,0,1,.7-.7h4.9a.7.7,0,0,1,.7.7v4.9a.7.7,0,0,1-.7.7Zm-7.7,0a.7.7,0,0,1-.7-.7v-4.9a.7.7,0,0,1,.7-.7h4.9a.7.7,0,0,1,.7.7v4.9a.7.7,0,0,1-.7.7Z" transform="translate(790 59)"/>
  </g>
</svg>
