<?xml version="1.0" standalone="no"?>
<!DOCTYPE svg PUBLIC "-//W3C//DTD SVG 20010904//EN"
 "http://www.w3.org/TR/2001/REC-SVG-20010904/DTD/svg10.dtd">
<svg version="1.0" xmlns="http://www.w3.org/2000/svg"
 width="700.000000pt" height="700.000000pt" viewBox="0 0 700.000000 700.000000"
 preserveAspectRatio="xMidYMid meet">
<metadata>
Created by potrace 1.11, written by Peter Selinger 2001-2013
</metadata>
<g transform="translate(0.000000,700.000000) scale(0.100000,-0.100000)"
fill="#000000" stroke="none">
<path d="M464 6641 c-115 -81 -174 -186 -174 -310 0 -121 55 -260 151 -387 27
-36 49 -68 49 -72 0 -4 -14 -13 -31 -21 -46 -20 -97 -76 -110 -122 -27 -87 26
-211 154 -359 36 -42 90 -97 121 -122 95 -78 280 -139 709 -233 441 -97 578
-134 646 -176 l34 -21 -28 -22 -29 -23 -45 23 c-66 33 -183 65 -478 129 -333
72 -503 115 -631 160 -57 19 -107 33 -112 30 -17 -10 -11 -102 9 -154 30 -79
118 -197 232 -312 59 -58 122 -118 141 -133 27 -20 96 -41 309 -95 268 -68
386 -104 462 -142 43 -22 44 -25 17 -54 l-20 -22 -59 28 c-67 32 -195 71 -388
119 l-133 32 -20 -23 c-34 -40 -60 -96 -60 -131 0 -74 62 -128 210 -184 71
-27 501 -149 565 -160 14 -3 33 12 65 52 101 124 360 334 581 471 106 67 320
188 343 196 21 7 -96 203 -182 305 -106 125 -222 194 -561 332 -123 50 -276
118 -340 150 -475 243 -926 612 -1146 940 -71 105 -150 264 -160 323 -4 20
-11 37 -15 37 -4 0 -38 -22 -76 -49z"/>
<path d="M6446 6678 c-100 -342 -398 -687 -891 -1033 -234 -164 -478 -292
-808 -424 -178 -71 -294 -125 -332 -155 -18 -14 -9 -15 112 -16 210 0 399 -47
537 -132 l50 -30 165 41 c91 22 241 56 332 75 310 65 540 129 669 188 111 50
290 249 346 385 52 127 21 208 -110 288 -15 9 -11 17 29 70 57 76 118 193 140
269 13 43 16 83 13 145 -5 106 -35 171 -113 245 -64 62 -133 104 -139 84z"/>
<path d="M3960 6536 c-284 -59 -545 -232 -708 -469 -194 -281 -284 -686 -253
-1140 13 -202 20 -257 32 -257 5 0 67 29 137 64 155 78 286 134 457 197 l130
48 -1 33 c0 18 -6 107 -14 198 -29 363 18 684 126 861 65 107 170 179 261 179
l33 0 -46 -47 c-91 -96 -139 -243 -116 -363 15 -84 46 -145 106 -208 58 -61
108 -93 189 -121 274 -95 594 69 663 339 31 122 4 238 -87 375 -89 133 -260
247 -444 296 -102 27 -364 36 -465 15z"/>
<path d="M6190 5084 c-122 -43 -305 -89 -605 -154 -270 -57 -395 -89 -395 -99
0 -4 12 -18 26 -32 76 -71 182 -253 215 -369 7 -25 14 -46 15 -48 1 -2 102 22
225 53 l223 57 95 87 c171 156 296 325 320 432 10 46 3 101 -15 105 -5 1 -52
-13 -104 -32z"/>
<path d="M4335 4964 c-364 -38 -693 -142 -1150 -363 -647 -313 -1074 -654
-1247 -995 -182 -361 -38 -704 350 -834 69 -24 92 -26 232 -26 144 0 161 1
235 27 220 77 372 226 468 461 17 43 33 73 34 65 23 -130 84 -479 88 -494 3
-16 -9 -30 -53 -63 -146 -106 -230 -305 -202 -475 10 -61 63 -189 86 -208 24
-19 40 6 53 81 16 86 41 120 122 161 32 16 62 29 67 29 12 0 80 -418 98 -607
19 -188 14 -473 -10 -606 -57 -313 -183 -493 -358 -514 l-53 -6 49 54 c94 104
139 245 116 362 -30 156 -126 265 -285 327 -86 34 -252 35 -346 2 -159 -55
-268 -162 -319 -313 -81 -238 96 -527 403 -656 270 -114 600 -95 882 50 347
180 566 509 644 968 52 303 37 631 -50 1118 -16 90 -28 165 -27 166 2 1 62 28
133 60 162 72 305 156 440 257 513 385 728 860 605 1333 -44 166 -114 291
-224 400 -119 118 -231 177 -405 215 -86 19 -296 32 -376 24z m-20 -494 c104
-50 187 -160 244 -322 112 -322 70 -612 -117 -810 -72 -76 -135 -117 -279
-187 -82 -40 -83 -40 -88 -18 -3 12 -50 290 -106 617 -55 327 -104 614 -108
638 -10 51 -11 50 110 87 71 21 100 25 189 22 87 -2 113 -7 155 -27z m-1150
-645 c25 -143 48 -272 51 -286 11 -54 -173 -230 -280 -265 -68 -23 -144 -15
-190 19 -47 37 -87 121 -93 201 -15 176 122 378 364 539 54 37 99 63 100 59 1
-4 23 -124 48 -267z"/>
<path d="M5582 4347 c-113 -29 -123 -33 -117 -52 3 -11 9 -82 12 -157 l6 -137
94 34 c172 62 233 112 233 193 0 37 -7 58 -35 100 -21 31 -42 52 -53 51 -9 -1
-72 -15 -140 -32z"/>
</g>
</svg>
